<svg width="26" height="28" viewBox="0 0 26 28" fill="none" xmlns="http://www.w3.org/2000/svg">
<ellipse cx="13" cy="14" rx="13" ry="14" fill="#DBDED7"/>
<path d="M17.8176 6.58824H16.4412C15.3009 6.58824 14.3765 7.41588 14.3765 8.40219V19.4938C14.3765 20.5148 15.3009 21.3424 16.4412 21.3424L17.8176 21.4118C18.958 21.4118 19.8824 20.5841 19.8824 19.5632V8.47151C19.8824 7.45054 18.9575 6.58824 17.8176 6.58824ZM9.55882 6.58824H8.18235C7.04203 6.58824 6.11765 7.41588 6.11765 8.43685V19.5285C6.11765 20.5837 7.04203 21.4118 8.18235 21.4118H9.55882C10.6991 21.4118 11.6235 20.5841 11.6235 19.5632V8.47151C11.6235 7.45054 10.6987 6.58824 9.55882 6.58824Z" fill="#423D54"/>
</svg>
